HIERARCHY
ROOT Hips
{
	OFFSET -0.001795 -0.223333 0.028219
	CHANNELS 6 Xposition Yposition Zposition Zrotation Yrotation Xrotation
	JOINT LeftUpLeg
	{
		OFFSET 0.069520 -0.091406 -0.006815
		CHANNELS 3 Zrotation Yrotation Xrotation
		JOINT LeftLeg
		{
			OFFSET 0.034277 -0.375199 -0.004496
			CHANNELS 3 Zrotation Yrotation Xrotation
			JOINT LeftFoot
			{
				OFFSET -0.013596 -0.397961 -0.043693
				CHANNELS 3 Zrotation Yrotation Xrotation
				JOINT LeftToe
				{
					OFFSET 0.026358 -0.055791 0.119288
					CHANNELS 3 Zrotation Yrotation Xrotation
					End Site
					{
						OFFSET 0.000000 0.000000 0.000000
					}
				}
			}
		}
	}
	JOINT RightUpLeg
	{
		OFFSET -0.067670 -0.090522 -0.004320
		CHANNELS 3 Zrotation Yrotation Xrotation
		JOINT RightLeg
		{
			OFFSET -0.038290 -0.382569 -0.008850
			CHANNELS 3 Zrotation Yrotation Xrotation
			JOINT RightFoot
			{
				OFFSET 0.015774 -0.398415 -0.042312
				CHANNELS 3 Zrotation Yrotation Xrotation
				JOINT RightToe
				{
					OFFSET -0.025372 -0.048144 0.123348
					CHANNELS 3 Zrotation Yrotation Xrotation
					End Site
					{
						OFFSET 0.000000 0.000000 0.000000
					}
				}
			}
		}
	}
	JOINT Spine
	{
		OFFSET -0.002533 0.108963 -0.026696
		CHANNELS 3 Zrotation Yrotation Xrotation
		JOINT Spine1
		{
			OFFSET 0.005487 0.135180 0.001092
			CHANNELS 3 Zrotation Yrotation Xrotation
			JOINT Spine2
			{
				OFFSET 0.001457 0.052922 0.025425
				CHANNELS 3 Zrotation Yrotation Xrotation
				JOINT Neck
				{
					OFFSET -0.002778 0.213870 -0.042857
					CHANNELS 3 Zrotation Yrotation Xrotation
					JOINT Head
					{
						OFFSET 0.005152 0.064970 0.051349
						CHANNELS 3 Zrotation Yrotation Xrotation
						End Site
						{
							OFFSET 0.000000 0.000000 0.000000
						}
					}
				}
				JOINT LeftShoulder
				{
					OFFSET 0.078845 0.121749 -0.034090
					CHANNELS 3 Zrotation Yrotation Xrotation
					JOINT LeftArm
					{
						OFFSET 0.090977 0.030469 -0.008868
						CHANNELS 3 Zrotation Yrotation Xrotation
						JOINT LeftForeArm
						{
							OFFSET 0.259612 -0.012772 -0.027456
							CHANNELS 3 Zrotation Yrotation Xrotation
							JOINT LeftHand
							{
								OFFSET 0.249234 0.008986 -0.001171
								CHANNELS 3 Zrotation Yrotation Xrotation
								End Site
								{
									OFFSET 0.000000 0.000000 0.000000
								}
							}
						}
					}
				}
				JOINT RightShoulder
				{
					OFFSET -0.081759 0.118833 -0.038615
					CHANNELS 3 Zrotation Yrotation Xrotation
					JOINT RightArm
					{
						OFFSET -0.096012 0.032551 -0.009143
						CHANNELS 3 Zrotation Yrotation Xrotation
						JOINT RightForeArm
						{
							OFFSET -0.253742 -0.013329 -0.021401
							CHANNELS 3 Zrotation Yrotation Xrotation
							JOINT RightHand
							{
								OFFSET -0.255298 0.007772 -0.005559
								CHANNELS 3 Zrotation Yrotation Xrotation
								End Site
								{
									OFFSET 0.000000 0.000000 0.000000
								}
							}
						}
					}
				}
			}
		}
	}
}
MOTION
Frames: 13
Frame Time: 0.050000
0.112417 0.159553 -0.173873 -4.319021 -14.207730 -94.689499 1.713004 -3.902021 -63.159071 -13.365110 24.414195 115.135765 16.415425 62.277027 -27.691718 0.000000 0.000000 0.000000 -16.014275 0.078525 -58.543789 26.362207 -14.716052 80.554382 -13.036841 -24.213313 39.661312 0.000000 0.000000 0.000000 3.153853 2.081960 -10.149595 4.265636 -2.452171 -4.556291 -0.532758 6.755562 35.458052 8.570092 -4.624660 -18.600120 0.000000 0.000000 0.000000 15.126781 -9.684610 2.277508 -43.799895 -36.022975 4.738219 123.596676 -55.297185 -77.550285 0.000000 0.000000 0.000000 1.034383 -0.287972 0.015752 39.178145 19.720866 -1.685214 -87.308196 59.313787 -48.205490 0.000000 0.000000 0.000000
0.144290 0.167193 -0.183919 -1.824208 -13.932165 -99.395585 1.112752 -3.994721 -69.293131 -25.075157 37.319670 101.747405 -5.216528 66.353255 -70.251247 0.000000 0.000000 0.000000 -18.500328 -0.508988 -60.472728 24.895108 -10.909953 74.679315 -10.806940 -21.673115 47.430864 0.000000 0.000000 0.000000 3.535034 2.577797 -11.675451 6.969996 -4.429877 -0.124092 -4.358621 4.301281 36.389031 5.536313 -3.910529 -14.221385 0.000000 0.000000 0.000000 5.900952 -9.964541 3.173121 -19.321364 -47.487356 0.547537 124.684627 -32.618179 -43.317638 0.000000 0.000000 0.000000 9.259451 -0.784268 -1.172735 24.448302 16.152085 -3.042447 -117.116867 51.356909 -70.175283 0.000000 0.000000 0.000000
0.168307 0.181284 -0.192944 -0.527737 -14.472089 -104.905283 -1.177479 -5.274414 -74.385501 -27.973166 38.511830 93.615430 -12.773381 58.304314 -95.603746 0.000000 0.000000 0.000000 -20.251878 -0.123561 -63.790142 23.760296 -8.691875 74.094076 -20.257387 -29.131367 45.663019 0.000000 0.000000 0.000000 6.237007 4.702142 -12.189566 11.400993 -8.747088 11.410904 -10.782074 2.048907 22.757165 2.287948 -2.987964 4.822496 0.000000 0.000000 0.000000 -6.931441 -22.074511 11.815262 5.726193 -43.094540 -6.555135 104.544151 -10.528974 -1.915272 0.000000 0.000000 0.000000 11.429114 -0.361551 -2.848870 10.824271 11.377278 -2.759362 -130.337370 43.242676 -74.903899 0.000000 0.000000 0.000000
0.181627 0.187368 -0.201042 -1.741503 -14.503477 -111.192427 -1.275049 -6.873497 -79.346814 -24.864737 35.260340 94.673348 -7.136324 54.474739 -88.869490 0.000000 0.000000 0.000000 -22.541299 -1.598076 -66.536131 21.411835 -6.735943 74.057231 -35.830146 -47.150348 22.683957 0.000000 0.000000 0.000000 4.345827 4.471643 -14.288745 19.271565 -18.182606 27.719473 -21.300668 -1.668511 3.690206 7.737941 -8.664305 9.776614 0.000000 0.000000 0.000000 -4.267403 -27.844811 13.047741 6.326880 -40.068219 -3.900214 87.738859 1.263868 11.684548 0.000000 0.000000 0.000000 7.185609 5.537147 -0.530170 6.168417 9.068727 -2.130718 -121.305845 37.734432 -56.445504 0.000000 0.000000 0.000000
0.187550 0.189363 -0.209879 -0.347121 -11.039215 -119.417334 1.996127 -5.821537 -83.839966 -27.633174 32.506638 86.021201 -1.830930 44.248960 -95.981819 0.000000 0.000000 0.000000 -23.392328 -0.014666 -76.955371 11.939169 -1.721814 70.773895 -6.401337 -54.956205 -66.566441 0.000000 0.000000 0.000000 2.423804 3.353402 -7.975982 18.254787 -24.360632 42.485287 -24.920885 -1.151676 -15.431912 3.080243 -6.448259 14.723805 0.000000 0.000000 0.000000 -4.617672 -29.378475 12.997726 3.751191 -39.032022 -0.720334 80.613663 4.898699 13.939434 0.000000 0.000000 0.000000 3.873439 6.454172 0.312072 -1.799726 11.861235 -1.960161 -120.675696 27.856788 -37.292399 0.000000 0.000000 0.000000
0.193600 0.192318 -0.222056 0.250473 -8.629653 -127.263885 4.983849 -4.169296 -84.954771 -31.773566 26.435365 67.540514 2.001874 41.603666 -95.494548 0.000000 0.000000 0.000000 -26.150472 0.811804 -84.552004 8.724220 -1.512139 46.292018 -9.498785 -46.117429 -71.509058 0.000000 0.000000 0.000000 2.001248 3.065793 -1.577899 14.815495 -25.015945 50.773184 -24.732380 -0.157245 -27.970719 4.081067 -9.058310 14.064559 0.000000 0.000000 0.000000 -2.859009 -35.279225 13.726209 -1.462785 -33.822717 2.072588 73.343630 7.573094 14.018298 0.000000 0.000000 0.000000 -5.192652 8.529652 2.728169 2.005622 18.298105 -1.625463 -110.227636 8.887546 -5.137186 0.000000 0.000000 0.000000
0.204142 0.192783 -0.243334 0.317244 -5.571271 -132.549642 9.101315 -3.573688 -85.521954 -28.036013 16.532096 51.977011 5.361645 44.204586 -88.363946 0.000000 0.000000 0.000000 -23.403339 3.331914 -88.538079 2.482896 0.001745 23.802461 -21.195599 -43.548730 -51.204751 0.000000 0.000000 0.000000 -0.548009 1.051276 -0.268629 13.149780 -22.658659 49.137925 -22.142427 2.159880 -22.940100 1.266030 -8.425037 16.906198 0.000000 0.000000 0.000000 -3.861623 -33.967182 14.060707 -0.590510 -34.013780 0.373779 77.800265 3.055968 13.719784 0.000000 0.000000 0.000000 -7.516753 10.333707 3.114545 -4.619641 22.831237 -3.563143 -112.698028 -9.097587 20.106635 0.000000 0.000000 0.000000
0.220499 0.206475 -0.276965 -0.706431 -4.847872 -134.581648 7.601928 -4.381673 -88.767277 -20.200646 11.460598 48.619723 9.577232 39.728951 -77.912758 0.000000 0.000000 0.000000 -31.386585 0.328452 -91.140654 5.253067 -0.712347 14.639519 -31.858190 -45.018944 -30.699589 0.000000 0.000000 0.000000 -0.344548 1.681482 -0.399273 13.822798 -28.742227 61.236464 -27.538393 -1.433565 -38.284483 0.416177 -9.263095 16.062710 0.000000 0.000000 0.000000 -1.722398 -32.119191 12.648714 -5.912007 -36.618238 4.927048 93.434032 4.471872 16.257225 0.000000 0.000000 0.000000 -12.717278 9.715029 3.492550 -2.334803 25.036345 -2.469718 -104.098020 -16.096206 22.633527 0.000000 0.000000 0.000000
0.239841 0.215776 -0.320541 -0.639312 -4.556232 -139.322571 0.732503 -6.572888 -88.250475 -11.272429 7.552639 50.271394 8.536254 34.915535 -81.987279 0.000000 0.000000 0.000000 -42.931856 -0.947552 -86.553776 7.877836 -1.035511 10.574293 -39.219489 -51.437365 -31.641085 0.000000 0.000000 0.000000 -0.298739 2.326612 -0.470063 14.544483 -27.664083 66.480857 -24.941345 -3.312267 -42.422188 -3.459116 -11.444022 19.001775 0.000000 0.000000 0.000000 -6.942908 -30.290230 16.090869 -2.773528 -37.571693 4.304060 109.833449 -2.154979 11.415669 0.000000 0.000000 0.000000 -13.149651 9.507036 3.398183 -5.962526 30.184670 -4.740217 -111.223205 -17.983207 25.970049 0.000000 0.000000 0.000000
0.258016 0.230971 -0.370910 -0.523395 -5.048049 -142.783451 -5.560863 -6.464110 -86.097467 -8.576424 5.736731 47.824256 7.873954 27.525463 -88.469981 0.000000 0.000000 0.000000 -56.156961 -0.895161 -79.167290 6.352562 -0.753910 8.012474 -22.073039 -54.424651 -64.299981 0.000000 0.000000 0.000000 -1.373173 2.351603 -3.906241 18.903786 -25.247074 66.392550 -23.970397 -6.503351 -39.361230 -8.281422 -10.849120 33.128874 0.000000 0.000000 0.000000 -18.406222 -25.270278 23.540230 12.124159 -39.046902 -1.198363 121.965247 -6.037827 3.708658 0.000000 0.000000 0.000000 -4.960855 11.727512 2.131780 -6.738324 30.515564 -7.370272 -112.685968 -11.115001 18.301544 0.000000 0.000000 0.000000
0.273723 0.245095 -0.425099 0.259727 -5.802811 -145.767011 -27.582705 -1.574100 -85.115405 -20.748401 9.179587 34.269824 9.252056 12.904468 -94.001520 0.000000 0.000000 0.000000 -76.436306 3.897256 -70.789845 9.145473 -0.739510 3.116599 -0.364097 -45.889822 -92.377834 0.000000 0.000000 0.000000 -6.505094 0.578614 -7.615646 40.482664 -35.921104 67.576847 -39.788647 -18.544054 -41.602836 -15.048001 -8.758445 35.355662 0.000000 0.000000 0.000000 -13.228532 -18.626512 25.902633 17.174488 -43.319578 -0.766164 120.597700 -1.855201 4.404203 0.000000 0.000000 0.000000 2.188099 16.536084 -1.545699 -4.069454 30.004148 -10.867595 -112.366374 0.476282 -4.113510 0.000000 0.000000 0.000000
0.287144 0.257824 -0.480138 1.801929 -4.497435 -148.604349 -38.024178 6.976328 -85.481090 -74.261048 12.564751 -1.015174 11.192846 4.668104 -92.689518 0.000000 0.000000 0.000000 -85.041931 8.549565 -65.274191 6.921007 -0.331634 -3.240647 8.288790 -28.564979 -107.075699 0.000000 0.000000 0.000000 -11.781048 2.301663 -15.880206 57.000505 -36.225548 60.080817 -43.026372 -26.265289 -35.514044 34.379561 -0.277694 50.624152 0.000000 0.000000 0.000000 -13.736744 -11.588725 34.201579 26.629761 -43.131016 -4.314752 119.537982 -1.195328 5.861566 0.000000 0.000000 0.000000 12.141032 24.461648 -14.580926 1.567810 23.369680 -9.481426 -114.009490 23.431013 -31.225902 0.000000 0.000000 0.000000
0.298657 0.260415 -0.535963 3.376014 -0.405628 -156.425824 -70.528414 22.487890 -97.944667 -83.332985 41.957865 24.333706 15.430927 -8.398464 -95.471908 0.000000 0.000000 0.000000 -94.702340 18.722551 -64.161553 2.951965 0.685687 -12.396290 7.197479 1.425157 -120.015422 0.000000 0.000000 0.000000 -22.083720 11.461985 -12.963535 94.258861 -34.995235 26.399324 -69.045561 -31.854673 -20.294228 101.569854 -17.034911 64.760204 0.000000 0.000000 0.000000 0.728984 -0.551830 52.765795 42.660316 -40.820966 -3.748050 116.093019 22.449016 43.688784 0.000000 0.000000 0.000000 22.074153 39.801150 -54.875794 3.587807 4.827162 -2.549465 -128.973532 59.239671 -68.166876 0.000000 0.000000 0.000000
